<?xml version="1.0" standalone="no"?>
<!DOCTYPE svg PUBLIC "-//W3C//DTD SVG 20010904//EN"
 "http://www.w3.org/TR/2001/REC-SVG-20010904/DTD/svg10.dtd">
<svg version="1.0" xmlns="http://www.w3.org/2000/svg"
 width="4851.000000pt" height="1825.000000pt" viewBox="0 0 4851.000000 1825.000000"
 preserveAspectRatio="xMidYMid meet">

<g transform="translate(0.000000,1825.000000) scale(0.100000,-0.100000)"
fill="#000000" stroke="none">
<path d="M34895 18240 c-533 -47 -984 -462 -1100 -1012 -93 -434 32 -889 330
-1206 85 -90 200 -181 294 -233 l61 -34 0 -646 0 -646 -77 -7 c-43 -4 -141
-16 -217 -27 -882 -127 -1704 -493 -2342 -1043 -155 -133 -421 -408 -548 -566
-112 -140 -298 -413 -381 -559 -137 -242 -279 -562 -364 -821 -219 -665 -274
-1466 -150 -2195 119 -707 434 -1406 885 -1972 533 -666 1243 -1155 2081
-1432 898 -296 1992 -329 2938 -89 1106 280 2042 934 2639 1843 324 493 553
1068 650 1635 53 308 61 409 61 810 0 401 -8 503 -61 810 -129 750 -474 1480
-978 2069 -630 738 -1531 1254 -2546 1461 -107 22 -277 50 -378 62 l-182 23 2
644 3 645 70 39 c267 151 478 412 580 720 46 140 65 265 65 427 0 162 -19 287
-65 426 -187 566 -707 924 -1270 874z m-415 -6490 l0 -560 -47 -24 c-87 -44
-197 -128 -288 -220 -342 -344 -464 -862 -319 -1345 135 -446 508 -791 951
-877 108 -22 318 -24 423 -5 253 45 483 172 670 367 167 174 280 389 336 639
24 109 30 388 10 505 -56 322 -214 602 -452 800 -52 42 -130 97 -173 121 l-80
44 -1 551 c0 303 3 553 6 556 7 8 196 -42 309 -82 211 -74 522 -248 695 -390
463 -378 764 -916 835 -1490 17 -144 20 -427 4 -568 -51 -470 -254 -919 -576
-1274 -357 -393 -833 -651 -1380 -750 -113 -20 -160 -23 -403 -23 -219 0 -297
4 -385 18 -777 128 -1401 580 -1748 1264 -118 233 -190 466 -222 722 -24 187
-17 555 14 723 149 817 729 1496 1511 1770 72 25 278 85 303 87 4 1 7 -251 7
-559z"/>
<path fill="#ad1817" d="M0 9805 l0 -4215 883 2 882 3 0 4210 0 4210 -882 3 -883 2 0 -4215z"/>
<path fill="#ad1817" d="M3960 9805 l0 -4215 880 0 880 0 0 4215 0 4215 -880 0 -880 0 0
-4215z"/>
<path fill="#ad1817" d="M7922 14009 c2 -6 910 -1165 2018 -2576 l2015 -2566 3 2564 c1 1410
0 2570 -3 2577 -6 16 -4039 18 -4033 1z"/>
<path d="M14135 14008 c-3 -7 -4 -1903 -3 -4213 l3 -4200 1630 -3 c1857 -3
1952 -1 2329 63 765 131 1569 560 2171 1160 1113 1109 1525 2723 1073 4200
-159 521 -444 1048 -797 1473 -638 769 -1563 1316 -2490 1472 -326 55 -248 53
-2149 57 -1435 3 -1763 1 -1767 -9z m3015 -1863 c1020 -109 1752 -722 1995
-1670 110 -430 110 -931 0 -1361 -165 -645 -570 -1145 -1150 -1420 -225 -106
-446 -173 -712 -215 -120 -19 -191 -22 -550 -26 l-413 -5 0 2356 0 2356 348 0
c232 0 392 -5 482 -15z"/>
<path d="M22920 9805 l0 -4215 1093 2 1092 3 5 1611 5 1611 1040 -1613 1040
-1614 1363 0 1363 0 -19 28 c-11 15 -606 790 -1321 1722 -715 932 -1301 1698
-1301 1702 0 3 15 10 33 13 239 52 583 192 799 326 176 109 376 284 501 439
353 438 519 1038 486 1753 -36 757 -354 1431 -874 1850 -374 302 -839 491
-1375 561 -247 32 -460 36 -2192 36 l-1738 0 0 -4215z m2965 2501 c525 -85
836 -327 942 -731 22 -88 26 -121 27 -270 1 -130 -3 -190 -17 -255 -93 -431
-418 -693 -964 -775 -75 -12 -208 -18 -435 -22 l-328 -5 0 1042 0 1042 338 -5
c242 -3 365 -9 437 -21z"/>
<path d="M41020 9805 l0 -4216 1768 4 c1905 4 1829 2 2153 57 807 137 1594
554 2210 1169 686 687 1105 1551 1226 2531 25 205 25 705 0 910 -63 507 -189
935 -405 1375 -227 461 -489 824 -848 1175 -664 649 -1502 1067 -2354 1174
-258 33 -450 36 -2097 36 l-1653 0 0 -4215z m3017 2340 c554 -59 1034 -272
1392 -619 186 -181 306 -347 426 -588 114 -230 190 -479 231 -763 23 -150 26
-557 6 -715 -69 -542 -283 -1007 -621 -1348 -315 -318 -761 -541 -1239 -621
-199 -34 -323 -41 -679 -41 l-343 0 0 2355 0 2355 340 0 c236 0 385 -5 487
-15z"/>
<path fill="#ad1817" d="M7910 8167 l0 -2577 2020 0 c1111 0 2020 2 2020 5 0 5 -4006 5112
-4031 5140 -5 5 -9 -1108 -9 -2568z"/>
<path d="M31948 4590 c-452 -48 -837 -250 -1146 -600 -200 -228 -325 -478
-389 -779 -25 -116 -27 -144 -28 -366 0 -211 3 -253 23 -353 70 -348 228 -637
487 -897 241 -240 523 -395 855 -467 93 -20 132 -22 345 -22 210 0 253 3 341
22 297 64 535 190 749 394 232 222 371 463 435 756 31 141 50 331 50 494 l0
148 -695 0 -695 0 0 -240 0 -240 421 0 421 0 -7 -42 c-31 -199 -117 -362 -269
-513 -145 -144 -335 -250 -521 -291 -105 -23 -331 -23 -432 0 -237 52 -437
163 -629 348 -270 261 -386 559 -371 957 13 356 121 607 366 852 189 189 367
286 624 340 122 26 350 31 467 10 172 -31 331 -99 481 -208 74 -52 247 -221
301 -292 l26 -35 129 121 c70 67 152 146 182 176 l54 55 -134 134 c-311 311
-581 457 -964 523 -111 19 -361 27 -477 15z"/>
<path d="M36450 3340 c-122 -19 -210 -66 -329 -176 l-71 -66 0 96 0 96 -245 0
-245 0 0 -1065 0 -1065 245 0 245 0 0 583 c0 321 5 622 10 672 11 96 40 206
71 267 98 193 342 245 549 117 l45 -28 112 222 c129 256 129 232 -1 286 -137
57 -273 79 -386 61z"/>
<path d="M39443 3340 c-290 -33 -515 -146 -715 -358 -150 -160 -244 -350 -278
-564 -20 -124 -8 -370 23 -491 29 -111 94 -254 158 -348 54 -81 205 -233 284
-286 210 -141 424 -200 695 -189 232 9 401 58 577 168 296 186 485 495 512
841 27 353 -70 640 -298 880 -169 178 -367 287 -600 331 -100 19 -268 27 -358
16z m349 -472 c191 -71 317 -207 380 -408 20 -66 23 -95 23 -240 0 -184 -15
-254 -78 -375 -42 -79 -155 -192 -234 -233 -184 -96 -442 -96 -626 0 -132 69
-248 222 -292 383 -23 85 -31 277 -15 372 41 257 207 450 441 513 108 29 306
23 401 -12z"/>
<path d="M47385 3339 c-179 -24 -354 -107 -491 -232 l-54 -49 0 116 0 116
-245 0 -245 0 0 -1645 0 -1645 245 0 245 0 0 695 0 696 63 -54 c90 -76 148
-114 240 -157 115 -53 193 -71 337 -77 195 -8 362 33 524 128 100 59 276 238
340 347 60 101 112 236 139 362 28 127 30 402 4 532 -88 441 -390 773 -776
853 -92 19 -243 25 -326 14z m212 -463 c76 -24 195 -108 248 -174 62 -77 122
-201 142 -292 24 -110 21 -303 -6 -403 -32 -121 -84 -210 -176 -303 -117 -118
-227 -164 -392 -164 -107 0 -171 14 -263 57 -145 69 -268 229 -317 413 -25 92
-24 339 1 430 60 220 227 396 422 445 78 19 269 14 341 -9z"/>
<path d="M42573 2543 c4 -804 3 -797 57 -934 93 -234 330 -425 601 -485 102
-22 295 -29 404 -15 248 33 468 160 601 347 55 77 78 130 112 252 l26 97 4
743 3 742 -243 -2 -243 -3 -5 -700 c-6 -760 -4 -735 -63 -850 -67 -132 -181
-195 -353 -195 -223 0 -355 114 -399 345 -12 63 -15 198 -15 741 l0 664 -245
0 -246 0 4 -747z"/>
</g>
</svg>
